<svg xmlns="http://www.w3.org/2000/svg" width="800" height="600" viewBox="-38 -38 3170 2080"><rect width="100%" height="100%" fill="#ffffff"/><path d="M 192 686 Q 342 686 492 686" stroke="#333" stroke-width="2" fill="none"/><path d="M 672 686 Q 822 686 972 686" stroke="#333" stroke-width="2" fill="none"/><path d="M 1152 686 Q 1302 686 1452 686" stroke="#333" stroke-width="2" fill="none"/><path d="M 1632 686 Q 1787 686 1942 1002" stroke="#333" stroke-width="2" fill="none"/><path d="M 1632 686 Q 1787 686 1942 1642" stroke="#333" stroke-width="2" fill="none"/><path d="M 1632 686 Q 1787 686 1942 362" stroke="#333" stroke-width="2" fill="none"/><path d="M 1632 686 Q 2267 686 2902 1652" stroke="#333" stroke-width="2" fill="none"/><path d="M 2122 1642 Q 2272 1642 2422 1322" stroke="#333" stroke-width="2" fill="none"/><path d="M 2122 1002 Q 2272 1002 2422 1002" stroke="#333" stroke-width="2" fill="none"/><path d="M 2122 1642 Q 2272 1642 2422 1962" stroke="#333" stroke-width="2" fill="none"/><path d="M 2122 362 Q 2272 362 2422 362" stroke="#333" stroke-width="2" fill="none"/><path d="M 2122 1642 Q 2272 1642 2422 1642" stroke="#333" stroke-width="2" fill="none"/><path d="M 2602 1642 Q 2752 1642 2902 1652" stroke="#333" stroke-width="2" fill="none"/><path d="M 1632 686 Q 1787 686 1942 42" stroke="#333" stroke-width="2" fill="none"/><path d="M 1632 686 Q 1787 686 1942 682" stroke="#333" stroke-width="2" fill="none"/><rect x="12" y="656" width="180" height="60" fill="#f0f0f0" stroke="#333" stroke-width="1" rx="5"/><text x="102" y="691" text-anchor="middle" fill="#333" font-family="Arial, sans-serif" font-size="12">User</text><rect x="972" y="656" width="180" height="60" fill="#f0f0f0" stroke="#333" stroke-width="1" rx="5"/><text x="1062" y="691" text-anchor="middle" fill="#333" font-family="Arial, sans-serif" font-size="12">Load Balancer</text><rect x="492" y="656" width="180" height="60" fill="#f0f0f0" stroke="#333" stroke-width="1" rx="5"/><text x="582" y="691" text-anchor="middle" fill="#333" font-family="Arial, sans-serif" font-size="12">Frontend</text><rect x="1452" y="656" width="180" height="60" fill="#f0f0f0" stroke="#333" stroke-width="1" rx="5"/><text x="1542" y="691" text-anchor="middle" fill="#333" font-family="Arial, sans-serif" font-size="12">API Gateway</text><rect x="1942" y="972" width="180" height="60" fill="#f0f0f0" stroke="#333" stroke-width="1" rx="5"/><text x="2032" y="1007" text-anchor="middle" fill="#333" font-family="Arial, sans-serif" font-size="12">User Service</text><rect x="1942" y="1612" width="180" height="60" fill="#f0f0f0" stroke="#333" stroke-width="1" rx="5"/><text x="2032" y="1647" text-anchor="middle" fill="#333" font-family="Arial, sans-serif" font-size="12">Post Service</text><rect x="1942" y="332" width="180" height="60" fill="#f0f0f0" stroke="#333" stroke-width="1" rx="5"/><text x="2032" y="367" text-anchor="middle" fill="#333" font-family="Arial, sans-serif" font-size="12">Feed Service</text><rect x="2902" y="1622" width="180" height="60" fill="#f0f0f0" stroke="#333" stroke-width="1" rx="5"/><text x="2992" y="1657" text-anchor="middle" fill="#333" font-family="Arial, sans-serif" font-size="12">Notification Service</text><rect x="2422" y="1292" width="180" height="60" fill="#f0f0f0" stroke="#333" stroke-width="1" rx="5"/><text x="2512" y="1327" text-anchor="middle" fill="#333" font-family="Arial, sans-serif" font-size="12">Media Storage</text><rect x="2422" y="972" width="180" height="60" fill="#f0f0f0" stroke="#333" stroke-width="1" rx="5"/><text x="2512" y="1007" text-anchor="middle" fill="#333" font-family="Arial, sans-serif" font-size="12">User Database</text><rect x="2422" y="1932" width="180" height="60" fill="#f0f0f0" stroke="#333" stroke-width="1" rx="5"/><text x="2512" y="1967" text-anchor="middle" fill="#333" font-family="Arial, sans-serif" font-size="12">Post Database</text><rect x="2422" y="332" width="180" height="60" fill="#f0f0f0" stroke="#333" stroke-width="1" rx="5"/><text x="2512" y="367" text-anchor="middle" fill="#333" font-family="Arial, sans-serif" font-size="12">Redis Cache</text><rect x="1942" y="12" width="180" height="60" fill="#f0f0f0" stroke="#333" stroke-width="1" rx="5"/><text x="2032" y="47" text-anchor="middle" fill="#333" font-family="Arial, sans-serif" font-size="12">Analytics Service</text><rect x="1942" y="652" width="180" height="60" fill="#f0f0f0" stroke="#333" stroke-width="1" rx="5"/><text x="2032" y="687" text-anchor="middle" fill="#333" font-family="Arial, sans-serif" font-size="12">Search Engine</text><rect x="2422" y="1612" width="180" height="60" fill="#f0f0f0" stroke="#333" stroke-width="1" rx="5"/><text x="2512" y="1647" text-anchor="middle" fill="#333" font-family="Arial, sans-serif" font-size="12">Message Queue</text></svg>